# xmcd
#
# Track frame offsets:
#	150
#	12562
#	28449
#	44155
#	62314
#	79348
#	91457
#	108955
#	125418
#	142097
#	156923
#	169405
#
# Disc length: 2428 seconds
#
# Revision: 1
# Processed by: cddbd v1.5.2PL0 Copyright (c) Steve Scherf et al.
# Submitted via: audiograbber 1.83.01
#
DISCID=ad097a0c
DTITLE=Henrique e Anieli - Pé na Estrada
DYEAR=2008
DGENRE=Country
TTITLE0=Pé na Estrada
TTITLE1=Eu To no Rodeio
TTITLE2=O Sentimento é o Amor
TTITLE3=É Pá Cabá
TTITLE4=O Nosso Amor
TTITLE5=Rasta Chinela
TTITLE6=Flor Roubada
TTITLE7=Te Amo Peão
TTITLE8=Mentiras
TTITLE9=Pura Magia
TTITLE10=Nosso Lance
TTITLE11=Fim de Semana
EXTD=
EXTT0=
EXTT1=
EXTT2=
EXTT3=
EXTT4=
EXTT5=
EXTT6=
EXTT7=
EXTT8=
EXTT9=
EXTT10=
EXTT11=
PLAYORDER=
